<svg xmlns="http://www.w3.org/2000/svg" width="770px" height="470px" xmlns:xlink="http://www.w3.org/1999/xlink" viewBox="0 0  770 470" preserveAspectRatio="xMidYMid meet" ><rect id="svgEditorBackground" x="0" y="0" width="770" height="470" style="fill: none; stroke: none;"/><g id="g_e4_svg"><svg xmlns="http://www.w3.org/2000/svg" xmlns:xlink="http://www.w3.org/1999/xlink" height="74" width="74" viewBox="72 66 69 69" preserveAspectRatio="xMidYMid meet" zoomAndPan="disable" id="e4_svg" x="107" y="44" stroke="black" style="stroke-width: 1px;" fill="khaki"><defs id="svgEditorDefs"><linearGradient id="grdid1" x1="0.88" y1="1" x2="0.1" y2="0.22" spreadMethod="pad" gradientUnits="objectBoundingBox">
	 <stop offset="0%" style="stop-color:rgb(255,255,255);stop-opacity:0"/>
	 <stop offset="0.51" style="stop-color:#F5DE8C;stop-opacity:1"/>
	</linearGradient><linearGradient id="grdlut2" spreadMethod="repeat" grdlutTransform="" grdlutUnits="objectBoundingBox" x1="0%" y1="0%" x2="20%" y2="0%">
<stop id="c1" offset="10%" stop-color="#bfba7f" stop-opacity="1"/>
<stop id="c2" offset="55%" stop-color="#cfba7f" stop-opacity="0.5"/>
<stop id="c3" offset="100%" stop-color="#b2ba7f" stop-opacity="1"/>
</linearGradient></defs>
<rect x="152.189" y="130.338" width="89.5135" height="94.1757" style="fill: ghostwhite; stroke: none; "/>
	
 

<path d="M117.826,97.226 C117.713,96.9265 117.039,96.53 116.722,96.5769 S115.954,97.0789 115.879,97.3558 S116.072,98.5154 116.398,98.5889 S117.09,98.0381 117.371,98.0048 S117.62,98.0336 117.696,98.0048 S117.879,97.4159 117.826,97.226 z" style="stroke: #000000; stroke-width: 0.2px; fill: #000000; stroke-linecap: round; stroke-linejoin: miter; stroke-opacity: 0.5; fill-opacity: 0.8; "/><path d="M78.9712,90.525 C79.6597,90.3453 81.2877,90.3371 81.8167,90.4632 C82.3457,90.5892 82.8917,90.8134 83.2394,90.958 C83.5872,91.1026 83.958,91.2771 84.291,91.4529" style="stroke: black; stroke-width: 0.5px; fill: none; stroke-linecap: round; stroke-linejoin: miter;"/><circle cx="116.845" cy="97.5924" r="0.71928" style="fill: #96c030; stroke-width: 0.13340505989321064px; stroke-linecap: butt; stroke-linejoin: miter; " /></svg></g></svg>